<svg xmlns="http://www.w3.org/2000/svg" width="6.6cm" height="6cm" viewBox="0 0 187.087 170.079">
  <title>Black-White</title>
  <g>
    <path d="M180,76.536a5.67,5.67,0,1,1,5.67-5.67A5.676,5.676,0,0,1,180,76.536Zm0-12.756a7.087,7.087,0,1,0,7.087,7.086A7.094,7.094,0,0,0,180,63.78Z" fill="#09090a"/>
    <path d="M180.217,71.433H178.64V68.124h1.577A1.668,1.668,0,1,1,180.217,71.433Zm-.144-4.252h-2.625v7.37h1.18V72.375h2l1.246,2.176h1.247L181.694,72C183.875,71.026,183.875,67.181,180.073,67.181Z" fill="#09090a"/>
  </g>
  <g>
    <rect y="0.002" width="170.077" height="170.077" fill="#fff"/>
    <path d="M169.641,102.094l-12.7,6.442-7.044-2.5L148.041,78.4l22.034-.63v.063h0V0H0V76.019l.514-2.031L19.16,72.744l.439,5.862-12.91.862L21.1,94.8l-1.565,6.223L0,102.45v67.629H170.079V101.89Zm-81.4-51.337.463,6.754,11.988-12,6.992,2.513,1.8,27.434-6.262.059-1.48-22.585-12.468,12.1,1.034,15.862-6.156.042L82.085,50.8ZM44.649,47.9l3.159,45.316-6.533.028L38.124,47.912ZM24.243,51.86l6.071-.065.708,9.932-6.116.013Zm.95,15.777,6.259-.11,1.986,29.658-6.209.058ZM71.43,130.958l-1.545-22.6L58.419,119.626l1.122,16.435-6.312.068-1.487-22.582L40.458,124.536,41.6,141.142l-6.158.043L33.365,111l6.161.009.409,5.939L50.74,106.058l7,2.543.214,3.3,10.88-10.98,7.061,2.55,1.747,27.45Zm-9.9-41.647-7.045-2.5L52.631,59.172l22.816-.652.4,8.054L60.394,81.445l.125,1.848,15.367-8.154,2.835,5.452ZM111,114.112a15.043,15.043,0,0,1-4.7,7.4,14.329,14.329,0,0,1-16.932,1.154,16.36,16.36,0,0,1-5.86-21.172A14.405,14.405,0,0,1,103.894,95.8a15.836,15.836,0,0,1,7.053,9.419A16.132,16.132,0,0,1,111,114.112Zm.747-68.022,6.573-1.367L116.97,25.382h6.055l1.207,17.992,7.538-1.7.351,5.957-7.427,1.608,1.611,21.476-6.157.043-1.414-20.21-6.371,1.422ZM136.7,112.517l-.5-6.42-11.743,11.674-7.006-2.563L115.6,87.79l19.364-.316L133.612,67.13l6.156-.043,3.139,45.441Z" fill="#09090a"/>
    <polygon points="59.009 64.817 59.594 74.281 70.075 64.341 59.009 64.817" fill="#09090a"/>
    <polygon points="0.001 81.334 0.001 96.506 13.381 95.65 0.001 81.334" fill="#09090a"/>
    <polygon points="165.485 83.567 154.419 84.044 155.003 93.506 165.485 83.567" fill="#09090a"/>
    <polygon points="170.078 95.065 170.078 86.977 170.035 86.977 155.805 100.672 155.93 102.519 170.076 95.012 170.076 95.066 170.078 95.065 170.078 95.065" fill="#09090a"/>
    <polygon points="122.154 93.613 123.292 110.489 135.713 98.292 135.426 93.338 122.154 93.613" fill="#09090a"/>
    <path d="M100.824,101.129a7.752,7.752,0,0,0-6.793-1.1,7.847,7.847,0,0,0-5.251,4.549,10.259,10.259,0,0,0-.359,7.027,10.03,10.03,0,0,0,4.045,5.833,7.727,7.727,0,0,0,6.787,1.1,7.571,7.571,0,0,0,5.2-4.535,11.041,11.041,0,0,0-3.627-12.876Z" fill="#09090a"/>
  </g>
</svg>
